<svg class="svg-icon" style="width: 1em; height: 1em;vertical-align: middle;fill: #f5ac3d;overflow: hidden;" viewBox="0 0 1024 1024" version="1.1" xmlns="http://www.w3.org/2000/svg"><path d="M384 426.666667a42.666667 42.666667 0 0 0-42.666667 42.666666v85.333334a42.666667 42.666667 0 0 0 85.333334 0v-85.333334a42.666667 42.666667 0 0 0-42.666667-42.666666z m512 42.666666a42.666667 42.666667 0 0 0 42.666667-42.666666V256a42.666667 42.666667 0 0 0-42.666667-42.666667H128a42.666667 42.666667 0 0 0-42.666667 42.666667v170.666667a42.666667 42.666667 0 0 0 42.666667 42.666666 42.666667 42.666667 0 0 1 0 85.333334 42.666667 42.666667 0 0 0-42.666667 42.666666v170.666667a42.666667 42.666667 0 0 0 42.666667 42.666667h768a42.666667 42.666667 0 0 0 42.666667-42.666667v-170.666667a42.666667 42.666667 0 0 0-42.666667-42.666666 42.666667 42.666667 0 0 1 0-85.333334z m-42.666667-77.653333a128 128 0 0 0 0 240.64V725.333333H426.666667a42.666667 42.666667 0 0 0-85.333334 0H170.666667v-93.013333a128 128 0 0 0 0-240.64V298.666667h170.666666a42.666667 42.666667 0 0 0 85.333334 0h426.666666z"  /></svg>