<svg xmlns="http://www.w3.org/2000/svg" width="718" height="335" viewBox="0 0 718 335" fill="none">
<g filter="url(#filter0_d_2543_7768)">
<path fill-rule="evenodd" clip-rule="evenodd" d="M649.627 1.44478e-06C650.179 1.40843e-06 650.627 0.447717 650.627 1V5.80156C650.627 6.90613 651.522 7.80156 652.627 7.80156C653.732 7.80156 654.627 6.90613 654.627 5.80156V1C654.627 0.447716 655.075 1.08629e-06 655.627 1.04994e-06L671.582 0C672.134 -3.63437e-08 672.581 0.450393 672.596 1.00246C673.127 19.8035 688.555 34.8816 707.508 34.8816V34.8816C707.509 34.8816 707.51 34.8823 707.51 34.8832V54.8121C707.51 54.8133 707.509 54.8143 707.508 54.8143V54.8143C700.343 54.8143 694.535 60.6149 694.535 67.7704C694.535 74.9258 700.343 80.7264 707.508 80.7264V80.7264C707.509 80.7264 707.51 80.7274 707.51 80.7286V96.67C707.51 96.6712 707.509 96.6722 707.508 96.6722V96.6722C700.343 96.6722 694.535 102.473 694.535 109.628C694.535 116.784 700.343 122.584 707.508 122.584V122.584C707.509 122.584 707.51 122.585 707.51 122.586V138.528C707.51 138.529 707.509 138.53 707.508 138.53V138.53C700.343 138.53 694.535 144.331 694.535 151.486C694.535 158.641 700.343 164.442 707.508 164.442V164.442C707.509 164.442 707.51 164.443 707.51 164.444V180.386C707.51 180.387 707.509 180.388 707.508 180.388V180.388C700.343 180.388 694.535 186.188 694.535 193.344C694.535 200.499 700.343 206.3 707.508 206.3V206.3C707.509 206.3 707.51 206.301 707.51 206.302V222.244C707.51 222.245 707.509 222.246 707.508 222.246V222.246C700.343 222.246 694.535 228.047 694.535 235.202C694.535 242.358 700.343 248.158 707.508 248.158V248.158C707.509 248.158 707.51 248.159 707.51 248.16V290.015C707.51 290.015 707.509 290.016 707.508 290.016V290.016C688.555 290.016 673.127 305.094 672.596 323.895C672.581 324.447 672.134 324.898 671.582 324.898L34.9255 324.897C34.9253 324.897 34.9252 324.897 34.9252 324.897V324.897C34.9252 305.968 19.8276 290.56 1.00242 290.03C0.450374 290.014 0 289.568 0 289.016V272.08C0 271.528 0.4492 271.084 0.999829 271.042C7.69634 270.531 12.9708 264.943 12.9708 258.124C12.9708 251.305 7.69634 245.717 0.99983 245.206C0.449201 245.164 0 244.72 0 244.168V224.242C0 223.69 0.4492 223.246 0.999829 223.204C7.69634 222.694 12.9708 217.105 12.9708 210.286C12.9708 203.468 7.69634 197.879 0.99983 197.368C0.449201 197.326 0 196.883 0 196.331V176.404C0 175.852 0.4492 175.408 0.999829 175.366C7.69634 174.856 12.9708 169.267 12.9708 162.449C12.9708 155.63 7.69634 150.041 0.99983 149.531C0.449201 149.489 0 149.045 0 148.493V128.567C0 128.015 0.4492 127.571 0.999829 127.529C7.69634 127.018 12.9708 121.43 12.9708 114.611C12.9708 107.792 7.69634 102.204 0.99983 101.693C0.449201 101.651 0 101.207 0 100.655V80.729C0 80.1768 0.4492 79.7331 0.999829 79.6911C7.69634 79.1803 12.9708 73.5919 12.9708 66.7731C12.9708 59.9543 7.69634 54.3659 0.99983 53.8551C0.449201 53.8131 0 53.3694 0 52.8172V35.8816C0 35.3293 0.450375 34.8831 1.00243 34.8675C19.4941 34.3463 34.3891 19.4705 34.911 1.0025C34.9266 0.450435 35.3729 4.18959e-05 35.9252 4.18959e-05H59.8672C60.4195 4.18959e-05 60.8672 0.447757 60.8672 1.00004V4.8226C60.8672 5.92717 61.7626 6.8226 62.8672 6.8226C63.9718 6.8226 64.8672 5.92716 64.8672 4.8226V1.00004C64.8672 0.447755 65.3149 3.9896e-05 65.8672 3.98597e-05L649.627 1.44478e-06ZM654.627 17.405C654.627 16.3005 653.732 15.405 652.627 15.405C651.522 15.405 650.627 16.3005 650.627 17.405V29.0085C650.627 30.1131 651.522 31.0085 652.627 31.0085C653.732 31.0085 654.627 30.1131 654.627 29.0085V17.405ZM654.627 40.612C654.627 39.5074 653.732 38.612 652.627 38.612C651.522 38.612 650.627 39.5074 650.627 40.612V52.2155C650.627 53.3201 651.522 54.2155 652.627 54.2155C653.732 54.2155 654.627 53.3201 654.627 52.2155V40.612ZM654.627 63.819C654.627 62.7144 653.732 61.819 652.627 61.819C651.522 61.819 650.627 62.7144 650.627 63.819V75.4224C650.627 76.527 651.522 77.4224 652.627 77.4224C653.732 77.4224 654.627 76.527 654.627 75.4224V63.819ZM654.627 87.0259C654.627 85.9214 653.732 85.0259 652.627 85.0259C651.522 85.0259 650.627 85.9214 650.627 87.0259V98.6294C650.627 99.734 651.522 100.629 652.627 100.629C653.732 100.629 654.627 99.734 654.627 98.6294V87.0259ZM654.627 110.233C654.627 109.128 653.732 108.233 652.627 108.233C651.522 108.233 650.627 109.128 650.627 110.233V121.836C650.627 122.941 651.522 123.836 652.627 123.836C653.732 123.836 654.627 122.941 654.627 121.836V110.233ZM654.627 133.44C654.627 132.335 653.732 131.44 652.627 131.44C651.522 131.44 650.627 132.335 650.627 133.44V145.043C650.627 146.148 651.522 147.043 652.627 147.043C653.732 147.043 654.627 146.148 654.627 145.043V133.44ZM654.627 156.647C654.627 155.542 653.732 154.647 652.627 154.647C651.522 154.647 650.627 155.542 650.627 156.647V168.25C650.627 169.355 651.522 170.25 652.627 170.25C653.732 170.25 654.627 169.355 654.627 168.25V156.647ZM654.627 179.854C654.627 178.749 653.732 177.854 652.627 177.854C651.522 177.854 650.627 178.749 650.627 179.854V191.457C650.627 192.562 651.522 193.457 652.627 193.457C653.732 193.457 654.627 192.562 654.627 191.457V179.854ZM654.627 203.061C654.627 201.956 653.732 201.061 652.627 201.061C651.522 201.061 650.627 201.956 650.627 203.061V214.664C650.627 215.769 651.522 216.664 652.627 216.664C653.732 216.664 654.627 215.769 654.627 214.664V203.061ZM654.627 226.268C654.627 225.163 653.732 224.268 652.627 224.268C651.522 224.268 650.627 225.163 650.627 226.268V237.871C650.627 238.976 651.522 239.871 652.627 239.871C653.732 239.871 654.627 238.976 654.627 237.871V226.268ZM654.627 249.475C654.627 248.37 653.732 247.475 652.627 247.475C651.522 247.475 650.627 248.37 650.627 249.475V261.078C650.627 262.183 651.522 263.078 652.627 263.078C653.732 263.078 654.627 262.183 654.627 261.078V249.475ZM654.627 272.682C654.627 271.577 653.732 270.682 652.627 270.682C651.522 270.682 650.627 271.577 650.627 272.682V284.285C650.627 285.39 651.522 286.285 652.627 286.285C653.732 286.285 654.627 285.39 654.627 284.285V272.682ZM654.627 295.889C654.627 294.784 653.732 293.889 652.627 293.889C651.522 293.889 650.627 294.784 650.627 295.889V307.492C650.627 308.597 651.522 309.492 652.627 309.492C653.732 309.492 654.627 308.597 654.627 307.492V295.889ZM654.627 319.096C654.627 317.991 653.732 317.096 652.627 317.096C651.522 317.096 650.627 317.991 650.627 319.096V323.897C650.627 324.45 651.075 324.897 651.627 324.897H653.627C654.179 324.897 654.627 324.45 654.627 323.897V319.096ZM62.8672 14.4617C63.9718 14.4617 64.8672 15.3571 64.8672 16.4617V28.1007C64.8672 29.2053 63.9718 30.1007 62.8672 30.1007C61.7626 30.1007 60.8672 29.2053 60.8672 28.1007V16.4617C60.8672 15.3571 61.7626 14.4617 62.8672 14.4617ZM62.8672 37.7398C63.9718 37.7398 64.8672 38.6352 64.8672 39.7398V51.3789C64.8672 52.4835 63.9718 53.3789 62.8672 53.3789C61.7626 53.3789 60.8672 52.4835 60.8672 51.3789L60.8672 39.7398C60.8672 38.6352 61.7626 37.7398 62.8672 37.7398ZM62.8672 61.018C63.9718 61.018 64.8672 61.9134 64.8672 63.018V74.657C64.8672 75.7616 63.9718 76.657 62.8672 76.657C61.7626 76.657 60.8672 75.7616 60.8672 74.657V63.018C60.8672 61.9134 61.7626 61.018 62.8672 61.018ZM62.8672 84.2961C63.9718 84.2961 64.8672 85.1915 64.8672 86.2961V97.9352C64.8672 99.0398 63.9718 99.9352 62.8672 99.9352C61.7626 99.9352 60.8672 99.0398 60.8672 97.9352V86.2961C60.8672 85.1915 61.7626 84.2961 62.8672 84.2961ZM62.8672 107.574C63.9718 107.574 64.8672 108.47 64.8672 109.574V121.213C64.8672 122.318 63.9718 123.213 62.8672 123.213C61.7626 123.213 60.8672 122.318 60.8672 121.213V109.574C60.8672 108.47 61.7626 107.574 62.8672 107.574ZM62.8672 130.852C63.9718 130.852 64.8672 131.748 64.8672 132.852V144.491C64.8672 145.596 63.9718 146.491 62.8672 146.491C61.7626 146.491 60.8672 145.596 60.8672 144.491V132.852C60.8672 131.748 61.7626 130.852 62.8672 130.852ZM62.8672 154.131C63.9718 154.131 64.8672 155.026 64.8672 156.131V167.77C64.8672 168.874 63.9718 169.77 62.8672 169.77C61.7626 169.77 60.8672 168.874 60.8672 167.77V156.131C60.8672 155.026 61.7626 154.131 62.8672 154.131ZM62.8672 177.409C63.9718 177.409 64.8672 178.304 64.8672 179.409V191.048C64.8672 192.152 63.9718 193.048 62.8672 193.048C61.7626 193.048 60.8672 192.152 60.8672 191.048V179.409C60.8672 178.304 61.7626 177.409 62.8672 177.409ZM62.8672 200.687C63.9718 200.687 64.8672 201.582 64.8672 202.687V214.326C64.8672 215.43 63.9718 216.326 62.8672 216.326C61.7626 216.326 60.8672 215.43 60.8672 214.326V202.687C60.8672 201.582 61.7626 200.687 62.8672 200.687ZM62.8672 223.965C63.9718 223.965 64.8672 224.86 64.8672 225.965V237.604C64.8672 238.709 63.9718 239.604 62.8672 239.604C61.7626 239.604 60.8672 238.709 60.8672 237.604V225.965C60.8672 224.86 61.7626 223.965 62.8672 223.965ZM62.8672 247.243C63.9718 247.243 64.8672 248.139 64.8672 249.243L64.8672 260.882C64.8672 261.987 63.9718 262.882 62.8672 262.882C61.7626 262.882 60.8672 261.987 60.8672 260.882V249.243C60.8672 248.139 61.7626 247.243 62.8672 247.243ZM62.8672 270.521C63.9718 270.521 64.8672 271.417 64.8672 272.521V284.16C64.8672 285.265 63.9718 286.16 62.8672 286.16C61.7626 286.16 60.8672 285.265 60.8672 284.16V272.521C60.8672 271.417 61.7626 270.521 62.8672 270.521ZM62.8672 293.799C63.9718 293.799 64.8672 294.695 64.8672 295.799V307.438C64.8672 308.543 63.9718 309.438 62.8672 309.438C61.7626 309.438 60.8672 308.543 60.8672 307.438L60.8672 295.799C60.8672 294.695 61.7626 293.799 62.8672 293.799ZM62.8672 317.078C63.9718 317.078 64.8672 317.973 64.8672 319.078V323.897C64.8672 324.449 64.4195 324.897 63.8672 324.897H61.8672C61.3149 324.897 60.8672 324.449 60.8672 323.897V319.078C60.8672 317.973 61.7626 317.078 62.8672 317.078Z" fill="#f5ac3d"/>
</g>
<rect x="86.8164" y="23.9189" width="541.859" height="277.06" rx="4" stroke="#f5cf7f" stroke-width="4" fill="#f5ac3d"/>
<path d="M627.676 72.7534L86.8148 72.7534" stroke="#f5cf7f" stroke-width="4" fill="#f5ac3d"/>
<path d="M582.773 118.598L627.679 118.598" stroke="#f5cf7f" stroke-width="4" fill="#f5ac3d"/>
<path d="M582.773 300.979L582.773 72.754" stroke="#f5cf7f" stroke-width="4" fill="#f5ac3d"/>
<path d="M605.99 83.6499C605.766 83.6499 605.571 83.8012 605.516 84.0179C604.13 89.4637 599.838 93.7513 594.384 95.1353C594.167 95.1903 594.016 95.3856 594.016 95.6093C594.016 95.8331 594.167 96.0284 594.384 96.0833C599.838 97.4673 604.13 101.754 605.516 107.201C605.571 107.417 605.766 107.569 605.99 107.569C606.214 107.569 606.41 107.417 606.465 107.201C607.851 101.755 612.143 97.4673 617.597 96.0833C617.814 96.0284 617.965 95.8331 617.965 95.6093C617.965 95.3856 617.814 95.1903 617.597 95.1353C612.144 93.7513 607.851 89.4644 606.465 84.0179C606.41 83.8012 606.214 83.6499 605.99 83.6499Z" fill="#f5cf7f"/>
<rect x="602.73" y="190.354" width="6.98529" height="93.6821" rx="3.49264" fill="#f5cf7f"/>
<rect x="602.73" y="154.476" width="6.98529" height="26.9087" rx="3.49264" fill="#f5cf7f"/>
<rect x="602.73" y="133.547" width="6.98529" height="11.9594" rx="3.49264" fill="#f5cf7f"/>
<defs fill="#f5ac3d">
<filter id="filter0_d_2543_7768" x="0" y="0" width="717.51" height="334.897" filterUnits="userSpaceOnUse" color-interpolation-filters="sRGB" fill="#f5ac3d">
<feFlood flood-opacity="0" result="BackgroundImageFix" fill="#f5ac3d"/>
<feColorMatrix in="SourceAlpha" type="matrix" values="0 0 0 0 0 0 0 0 0 0 0 0 0 0 0 0 0 0 127 0" result="hardAlpha" fill="#f5ac3d"/>
<feOffset dx="10" dy="10" fill="#f5ac3d"/>
<feComposite in2="hardAlpha" operator="out" fill="#f5ac3d"/>
<feColorMatrix type="matrix" values="0 0 0 0 0 0 0 0 0 0 0 0 0 0 0 0 0 0 0.15 0" fill="#f5ac3d"/>
<feBlend mode="normal" in2="BackgroundImageFix" result="effect1_dropShadow_2543_7768" fill="#f5ac3d"/>
<feBlend mode="normal" in="SourceGraphic" in2="effect1_dropShadow_2543_7768" result="shape" fill="#f5ac3d"/>
</filter>
</defs>
</svg>